<svg width="15" height="15" viewBox="0 0 15 15" fill="none" xmlns="http://www.w3.org/2000/svg">
<path d="M4.26839 8.40494L5.59402 7.08254L2.94422 4.43244C3.75571 3.98715 4.67267 3.74985 5.59841 3.74985C6.50951 3.74985 7.44053 3.97687 8.24616 4.40901L9.61222 3.04324C8.42223 2.28536 7.04123 1.87522 5.59871 1.87522C4.14124 1.87522 2.7494 2.29268 1.55297 3.06521L1.43945 2.95175C1.37192 2.86014 1.25093 2.81415 1.12994 2.81415C1.00959 2.81415 0.889448 2.85979 0.798016 2.95111L0.13769 3.61055C0.046463 3.70298 0.000673802 3.82309 0.000673802 3.94321C0.000673802 4.0637 0.0465216 4.18419 0.138129 4.27571L4.26839 8.40494ZM11.9556 5.34354L10.5895 6.70931C11.0216 7.51465 11.2487 8.41549 11.2487 9.35647C11.2487 10.3083 11.0106 11.2238 10.5676 12.0364L7.91629 9.38196L6.59066 10.7073L10.7448 14.8614C10.8363 14.953 10.9563 14.9987 11.0761 14.9987C11.1959 14.9987 11.316 14.953 11.4075 14.8614L12.0701 14.1988C12.1617 14.1072 12.2075 13.9864 12.2075 13.8657C12.2075 13.7449 12.1617 13.624 12.0701 13.5326L11.9346 13.4008C12.7072 12.2035 13.1249 10.8122 13.1249 9.35506C13.0981 7.88348 12.688 6.50658 11.9556 5.34354ZM14.9994 0.458185C14.9994 0.205246 14.7916 0 14.5389 0C14.5095 0 14.4799 0.0026249 14.4494 0.00849576L10.682 0.762861C10.451 0.809998 10.3126 1.01032 10.3126 1.21607C10.3126 1.33003 10.355 1.44548 10.4477 1.53803L11.4584 2.54873L4.11605 9.89024L2.65859 9.401C2.59695 9.38115 2.53118 9.37153 2.46825 9.37153C2.31064 9.37153 2.1586 9.43235 2.04346 9.54748L0.175862 11.4171C0.0556912 11.5367 0 11.689 0 11.8384C0 12.0838 0.149408 12.3247 0.41307 12.4132L2.0425 12.9552L2.58447 14.5863C2.67315 14.85 2.91375 15 3.16013 15C3.31053 15 3.46334 14.9437 3.58404 14.8243L5.44783 12.957C5.56297 12.8419 5.62393 12.6877 5.62393 12.5302C5.62393 12.4672 5.61419 12.4035 5.59434 12.3419L5.10918 10.8804L12.4507 3.54185L13.4614 4.55168C13.554 4.64428 13.6697 4.68758 13.7839 4.68758C13.9901 4.68758 14.1906 4.54828 14.2377 4.31728L14.9912 0.549852C14.9965 0.519999 14.9994 0.487774 14.9994 0.458185Z" fill="#FFFEFF"/>
</svg>
