<svg width="25" height="20" viewBox="0 0 25 20" fill="none" xmlns="http://www.w3.org/2000/svg">
<path d="M0.291719 7.61328C-0.308828 6.57031 0.0475781 5.24219 1.08789 4.64062L8.62109 0.291719C9.66016 -0.308828 10.9922 0.0475781 11.5938 1.08789L18.1172 12.3867C18.7148 13.4297 18.3594 14.7578 17.3203 15.3594L9.78516 19.707C8.74609 20.3086 7.41797 19.9531 6.81641 18.9141L0.291719 7.61328ZM7.66016 6.23438C7.25781 6.11719 6.8125 6.375 6.69531 6.80859L5.61719 10.832C5.34766 11.8437 5.94922 12.8555 6.96484 13.1602C7.98047 13.4336 8.98828 12.832 9.29297 11.8164L9.38672 11.4688C9.39062 11.457 9.39453 11.4414 9.39844 11.4258L10.0938 12.625L9.62109 12.8984C9.35938 13.0469 9.27344 13.3789 9.42188 13.6406C9.57422 13.9023 9.90625 13.9883 10.1641 13.8398L12.0469 12.7539C12.3086 12.6016 12.3984 12.2695 12.2461 12.0078C12.0977 11.75 11.7656 11.6602 11.5039 11.8086L11.0352 12.082L10.3398 10.8828C10.3555 10.8867 10.3711 10.8906 10.3867 10.8945L10.7305 10.9844C11.7461 11.2578 12.7891 10.6562 13.0625 9.64062C13.332 8.625 12.7305 7.58203 11.7148 7.30859L7.66016 6.23438ZM19.1992 11.7617L13.8555 2.50977C13.9258 2.50312 13.9922 2.46484 14.0625 2.46484H22.8125C24.0195 2.46484 25 3.4793 25 4.65234V17.8125C25 19.0195 24.0195 20 22.8125 20H14.0625C13.5312 20 13.0391 19.8086 12.6602 19.457L17.9453 16.4414C19.582 15.4961 20.1445 13.4023 19.1992 11.7617ZM20.8555 9.28125L22.7344 7.32812C23.2812 6.76172 23.2539 5.82812 22.6484 5.30078C22.1016 4.83984 21.3008 4.92969 20.8164 5.42578L20.6289 5.63281L20.4336 5.42578C19.9453 4.92969 19.1367 4.83984 18.6094 5.30078C17.9961 5.82812 17.9648 6.76172 18.5117 7.32812L20.4062 9.28125C20.5234 9.40625 20.7266 9.40625 20.8555 9.28125Z" fill="#000"/>
</svg>
