<svg width="12" height="13" viewBox="0 0 12 13" fill="none" xmlns="http://www.w3.org/2000/svg">
<path d="M12 2.375C12 2.79688 11.6648 3.18594 11.1 3.5C10.418 3.87734 9.40078 4.14453 8.23359 4.22422C8.14687 4.18203 8.06016 4.14219 7.96875 4.10703C7.04531 3.72031 5.81719 3.5 4.5 3.5C4.30547 3.5 4.11562 3.50469 3.92578 3.51406L3.9 3.5C3.33516 3.18594 3 2.79688 3 2.375C3 1.33906 5.01562 0.5 7.5 0.5C9.98438 0.5 12 1.33906 12 2.375ZM3.76641 4.27578C4.00547 4.25938 4.25156 4.25 4.5 4.25C5.95781 4.25 7.25156 4.53828 8.07422 4.98594C8.65547 5.30234 9 5.69609 9 6.125C9 6.21875 8.98359 6.31016 8.95078 6.39922C8.84297 6.70859 8.55234 6.99219 8.13047 7.23125C8.12813 7.23359 8.12344 7.23359 8.12109 7.23594C8.11406 7.24062 8.10703 7.24297 8.1 7.24766C7.27969 7.70234 5.97188 7.99766 4.5 7.99766C3.10313 7.99766 1.85391 7.73281 1.02656 7.31562C0.982031 7.29453 0.939844 7.27109 0.897656 7.24766C0.335156 6.93594 0 6.54688 0 6.125C0 5.30937 1.25156 4.61328 3 4.35781C3.24609 4.32266 3.50156 4.29453 3.76641 4.27578ZM9.75 6.125C9.75 5.61172 9.50156 5.18984 9.18516 4.87344C9.84844 4.77031 10.4555 4.60625 10.9711 4.39297C11.3531 4.23359 11.7094 4.03672 12 3.79531V4.625C12 5.07734 11.6133 5.49453 10.9734 5.81797C10.6313 5.99141 10.2141 6.13906 9.74531 6.25156C9.74766 6.20937 9.75 6.16953 9.75 6.12734V6.125ZM9 8.375C9 8.79688 8.66484 9.18594 8.1 9.5C8.05781 9.52344 8.01562 9.54453 7.97109 9.56797C7.14609 9.98516 5.89687 10.25 4.5 10.25C3.02813 10.25 1.72031 9.95469 0.9 9.5C0.335156 9.18594 0 8.79688 0 8.375V7.54531C0.292969 7.78672 0.646875 7.98359 1.02891 8.14297C1.95469 8.52969 3.18281 8.75 4.5 8.75C5.81719 8.75 7.04531 8.52969 7.97109 8.14297C8.15391 8.06797 8.32969 7.98125 8.49609 7.8875C8.63906 7.80781 8.77266 7.71875 8.89922 7.625C8.93438 7.59922 8.96719 7.57109 9 7.54531V7.625V7.75859V8.375ZM9.75 8.375V7.625V7.01797C10.1953 6.91953 10.6055 6.79531 10.9711 6.64297C11.3531 6.48359 11.7094 6.28672 12 6.04531V6.875C12 7.12109 11.8828 7.36719 11.6508 7.59922C11.2688 7.98125 10.5961 8.29531 9.74531 8.49922C9.74766 8.45937 9.75 8.41719 9.75 8.375ZM4.5 11C5.81719 11 7.04531 10.7797 7.97109 10.393C8.35313 10.2336 8.70938 10.0367 9 9.79531V10.625C9 11.6609 6.98438 12.5 4.5 12.5C2.01562 12.5 0 11.6609 0 10.625V9.79531C0.292969 10.0367 0.646875 10.2336 1.02891 10.393C1.95469 10.7797 3.18281 11 4.5 11Z" fill="#000"/>
</svg>
