<svg width="15" height="16" viewBox="0 0 15 16" fill="none" xmlns="http://www.w3.org/2000/svg">
<path d="M12.5941 14.1017C14.3606 12.3718 15.1457 9.48857 14.6747 6.72894H7.64795V9.77689H11.652C11.495 10.7654 10.9454 11.5892 10.1603 12.1246L12.5941 14.1017Z" fill="#4285F4"/>
<path d="M0.974487 11.6716C1.49089 12.7389 2.23148 13.6693 3.14044 14.3927C4.04939 15.1161 5.10299 15.6135 6.22181 15.8475C7.34063 16.0815 8.49547 16.0459 9.59929 15.7435C10.7031 15.4411 11.7271 14.8797 12.5941 14.1017L10.1602 12.1246C8.07971 13.5662 4.62524 13.0308 3.44758 9.65332L0.974487 11.6716Z" fill="#34A853"/>
<path d="M3.44764 9.65329C3.1336 8.62358 3.1336 7.67624 3.44764 6.64653L0.974553 4.6283C0.0716793 6.52297 -0.203108 9.20022 0.974553 11.6715L3.44764 9.65329Z" fill="#FBBC02"/>
<path d="M3.44758 6.64652C4.31119 3.80451 8.0012 2.15697 10.4743 4.58709L12.6333 2.36292C9.57141 -0.72622 3.6046 -0.602655 0.974487 4.62828L3.44758 6.64652Z" fill="#EA4335"/>
</svg>
