<svg width="12" height="15" viewBox="0 0 12 15" fill="none" xmlns="http://www.w3.org/2000/svg">
<path d="M4.6875 0C5.20605 0 5.625 0.418945 5.625 0.9375V4.21875H3.75V0.9375C3.75 0.418945 4.16895 0 4.6875 0ZM0.9375 1.875C0.9375 1.35645 1.35645 0.9375 1.875 0.9375C2.39355 0.9375 2.8125 1.35645 2.8125 1.875V4.21875H0.9375V1.875ZM6.5625 1.875C6.5625 1.35645 6.98145 0.9375 7.5 0.9375C8.01855 0.9375 8.4375 1.35645 8.4375 1.875V4.6875C8.4375 5.20605 8.01855 5.625 7.5 5.625C6.98145 5.625 6.5625 5.20605 6.5625 4.6875V1.875ZM9.375 3.75C9.375 3.23145 9.79395 2.8125 10.3125 2.8125C10.8311 2.8125 11.25 3.23145 11.25 3.75V5.625C11.25 6.14355 10.8311 6.5625 10.3125 6.5625C9.79395 6.5625 9.375 6.14355 9.375 5.625V3.75ZM6.5625 6.32812V6.31055C6.83789 6.46875 7.15723 6.5625 7.5 6.5625C7.88672 6.5625 8.24414 6.44531 8.54297 6.24609C8.79785 6.97559 9.49512 7.5 10.3125 7.5C10.6553 7.5 10.9746 7.40918 11.25 7.24805V7.5C11.25 9.03223 10.5146 10.3945 9.375 11.25V14.0625C9.375 14.5811 8.95605 15 8.4375 15H3.75C3.23145 15 2.8125 14.5811 2.8125 14.0625V11.7656C2.30566 11.5342 1.83984 11.2148 1.43848 10.8135L1.09863 10.4736C0.395508 9.77051 0 8.81543 0 7.82227V7.03125C0 5.99707 0.84082 5.15625 1.875 5.15625H4.45312C5.10059 5.15625 5.625 5.68066 5.625 6.32812C5.625 6.97559 5.10059 7.5 4.45312 7.5H2.8125C2.55469 7.5 2.34375 7.71094 2.34375 7.96875C2.34375 8.22656 2.55469 8.4375 2.8125 8.4375H4.45312C5.61914 8.4375 6.5625 7.49414 6.5625 6.32812Z" fill="#FFFEFF"/>
</svg>
