<svg width="18" height="15" viewBox="0 0 18 15" fill="none" xmlns="http://www.w3.org/2000/svg">
<path d="M4.09035 0.0671284C4.88855 -0.0664761 5.69361 0.00203912 6.44042 0.248694L8.14645 2.90365L5.56343 5.48667C5.51204 5.53806 5.48121 5.61 5.48464 5.68537C5.48806 5.76074 5.51889 5.82925 5.57371 5.88064L9.41055 9.44342C9.5099 9.53592 9.66406 9.54277 9.77026 9.4537C9.87646 9.36463 9.90043 9.2139 9.82849 9.09742L7.75934 5.73676L10.8665 3.14688C10.9556 3.07494 10.9864 2.95161 10.9487 2.84542L10.1676 0.673487C11.144 0.101386 12.3053 -0.121288 13.4461 0.0705542C15.8099 0.46109 17.5399 2.50284 17.5399 4.89744V5.09614C17.5399 6.51783 16.9506 7.87785 15.9092 8.84734L9.71887 14.6266C9.46194 14.8664 9.12279 15 8.76994 15C8.41708 15 8.07793 14.8664 7.821 14.6266L1.63066 8.84734C0.58923 7.87785 0 6.51783 0 5.09614V4.89744C0 2.50284 1.73001 0.46109 4.09035 0.0671284Z" fill="#FE4473"/>
</svg>
