<svg width="17" height="15" viewBox="0 0 17 15" fill="none" xmlns="http://www.w3.org/2000/svg">
<path d="M16.7168 7.14844C16.9102 7.31836 16.9277 7.59082 16.7315 7.81055C16.5879 8.00391 16.2891 8.02148 16.0957 7.8252L15 6.8584V12.6562C15 13.9512 13.9512 15 12.6563 15H4.21876C2.92442 15 1.87501 13.9512 1.87501 12.6562V6.8584L0.77901 7.8252C0.584772 8.02148 0.288551 8.00391 0.117282 7.81055C-0.0540172 7.59082 -0.0355016 7.31836 0.15862 7.14844L8.12696 0.117246C8.30567 -0.039082 8.56934 -0.039082 8.74805 0.117246L16.7168 7.14844ZM4.21876 14.0625H6.09376V9.375C6.09376 8.85645 6.5127 8.4375 7.03126 8.4375H9.84376C10.3623 8.4375 10.7813 8.85645 10.7813 9.375V14.0625H12.6563C13.4326 14.0625 14.0625 13.4326 14.0625 12.6562V6.05566L8.43751 1.09395L2.81251 6.05566V12.6562C2.81251 13.4326 3.44239 14.0625 4.21876 14.0625ZM7.03126 14.0625H9.84376V9.375H7.03126V14.0625Z" fill="#000"/>
</svg>
