<svg width="17" height="15" viewBox="0 0 17 15" fill="none" xmlns="http://www.w3.org/2000/svg">
<path d="M16.8691 7.48535C16.8691 8.0127 16.4297 8.42578 15.9316 8.42578H14.9941L15.0146 13.1162C15.0146 13.1982 15.0088 13.2744 15 13.3535V13.8281C15 14.4756 14.4756 15 13.8281 15H13.3594C13.3271 15 13.2949 14.9736 13.2627 14.9971C13.2217 14.9736 13.1807 15 13.1396 15H11.4844C10.8369 15 10.3125 14.4756 10.3125 13.8281V11.25C10.3125 10.7314 9.89355 10.3125 9.375 10.3125H7.5C6.98144 10.3125 6.5625 10.7314 6.5625 11.25V13.8281C6.5625 14.4756 6.03809 15 5.39062 15H3.75293C3.70898 15 3.66504 14.9971 3.62109 14.9941C3.58594 14.9971 3.55078 15 3.51562 15H3.04687C2.39971 15 1.875 14.4756 1.875 13.8281V10.5469C1.875 10.5205 1.87588 10.4912 1.87764 10.4648V8.42578H0.938965C0.410742 8.42578 0 8.0127 0 7.48535C0 7.22168 0.0880078 6.9873 0.293262 6.78223L7.80469 0.234844C8.00976 0.0293555 8.24414 0 8.44922 0C8.6543 0 8.88867 0.0587109 9.06738 0.205488L16.5469 6.78223C16.7812 6.9873 16.9014 7.22168 16.8691 7.48535Z" fill="#000"/>
</svg>
