<svg width="23" height="20" viewBox="0 0 23 20" fill="none" xmlns="http://www.w3.org/2000/svg">
<path d="M22.4922 9.98047C22.4922 10.6836 21.9062 11.2344 21.2422 11.2344H19.9922L20.0195 17.4883C20.0195 17.5977 20.0117 17.6992 20 17.8047V18.4375C20 19.3008 19.3008 20 18.4375 20H17.8125C17.7695 20 17.7266 19.9648 17.6836 19.9961C17.6289 19.9648 17.5742 20 17.5195 20H15.3125C14.4492 20 13.75 19.3008 13.75 18.4375V15C13.75 14.3086 13.1914 13.75 12.5 13.75H10C9.30859 13.75 8.75 14.3086 8.75 15V18.4375C8.75 19.3008 8.05078 20 7.1875 20H5.00391C4.94531 20 4.88672 19.9961 4.82812 19.9922C4.78125 19.9961 4.73437 20 4.6875 20H4.0625C3.19961 20 2.5 19.3008 2.5 18.4375V14.0625C2.5 14.0273 2.50117 13.9883 2.50352 13.9531V11.2344H1.25195C0.547656 11.2344 0 10.6836 0 9.98047C0 9.62891 0.117344 9.31641 0.391016 9.04297L10.4062 0.313125C10.6797 0.0391406 10.9922 0 11.2656 0C11.5391 0 11.8516 0.0782812 12.0898 0.273984L22.0625 9.04297C22.375 9.31641 22.5352 9.62891 22.4922 9.98047Z" fill="#000"/>
</svg>
