<svg width="17" height="20" viewBox="0 0 17 20" fill="none" xmlns="http://www.w3.org/2000/svg">
<path d="M12.4987 1.8748C12.4987 1.37757 12.3012 0.90071 11.9496 0.549117C11.598 0.197523 11.1211 0 10.6239 0C10.1266 0 9.64978 0.197523 9.29819 0.549117C8.9466 0.90071 8.74907 1.37757 8.74907 1.8748C8.74907 2.37203 8.9466 2.84889 9.29819 3.20049C9.64978 3.55208 10.1266 3.7496 10.6239 3.7496C11.1211 3.7496 11.598 3.55208 11.9496 3.20049C12.3012 2.84889 12.4987 2.37203 12.4987 1.8748ZM4.90964 6.85474C5.29631 6.46807 5.8236 6.24934 6.37433 6.24934C6.44854 6.24934 6.52275 6.25324 6.59305 6.26106L5.37443 9.92083C5.01119 11.0145 5.44083 12.2175 6.4212 12.8307L9.78803 14.9359L8.79594 18.4043C8.60456 19.0683 8.99124 19.7596 9.65523 19.951C10.3192 20.1424 11.0106 19.7557 11.2019 19.0917L12.3229 15.1703C12.5534 14.3657 12.2214 13.5064 11.5144 13.065L9.29589 11.6785L10.5028 8.46004L10.702 8.94046C11.2879 10.3387 12.651 11.2488 14.1665 11.2488H14.9984C15.6897 11.2488 16.2483 10.6903 16.2483 9.99894C16.2483 9.30761 15.6897 8.74907 14.9984 8.74907H14.1665C13.6626 8.74907 13.2056 8.44442 13.0142 7.97962L12.7682 7.39375C12.1979 6.0228 11.0457 4.97604 9.62398 4.53858L7.72184 3.95271C7.28829 3.81991 6.83521 3.7496 6.37823 3.7496C5.16742 3.7496 4.00348 4.23002 3.1481 5.08931L2.24195 5.99155C1.75372 6.47978 1.75372 7.27267 2.24195 7.7609C2.73018 8.24913 3.52306 8.24913 4.01129 7.7609L4.91354 6.85865L4.90964 6.85474ZM3.56212 13.7485H1.24987C0.558535 13.7485 0 14.3071 0 14.9984C0 15.6897 0.558535 16.2483 1.24987 16.2483H3.96833C4.71044 16.2483 5.38224 15.8108 5.68299 15.1351L6.13216 14.1235L5.76111 13.8892C5.07759 13.4634 4.56983 12.8424 4.2808 12.1354L3.56212 13.7485Z" fill="#000"/>
</svg>
