<svg width="19" height="15" viewBox="0 0 19 15" fill="none" xmlns="http://www.w3.org/2000/svg">
<path d="M8.65724 0.445296C8.95607 -0.15866 9.81153 -0.139266 10.0957 0.448811L10.6787 1.62538L11.9707 1.8117C12.6152 1.91161 12.8936 2.70936 12.419 3.18456L12.4131 3.19042L11.4785 4.09276L11.7012 5.38182C11.8008 6.02929 11.1299 6.53026 10.5352 6.23143L10.5264 6.22558L9.38087 5.62499L8.21485 6.24022C7.62013 6.53905 6.94923 6.03808 7.04884 5.39354L7.05177 5.38475L7.27149 4.07518L6.33106 3.18456C5.85645 2.70936 6.13477 1.91161 6.7793 1.8117L6.78516 1.81112L8.0713 1.62538L8.65724 0.446468V0.445296ZM8.69532 2.4829L7.17774 2.70145L8.27931 3.77342L8.01856 5.28514L9.38087 4.56444L10.7315 5.27636L10.4707 3.76171L11.5693 2.70145L10.0547 2.4829L9.34864 1.10711L8.69532 2.4829ZM5.62501 10.7812V13.5937C5.62501 14.3701 4.99512 15 4.21875 15H1.40625C0.629591 15 0 14.3701 0 13.5937V10.7812C0 10.0049 0.629591 9.37499 1.40625 9.37499H4.21875C4.99512 9.37499 5.62501 10.0049 5.62501 10.7812ZM0.937501 13.5937C0.937501 13.8516 1.14727 14.0625 1.40625 14.0625H4.21875C4.47657 14.0625 4.68751 13.8516 4.68751 13.5937V10.7812C4.68751 10.5234 4.47657 10.3125 4.21875 10.3125H1.40625C1.14727 10.3125 0.937501 10.5234 0.937501 10.7812V13.5937ZM12.1875 13.5937C12.1875 14.3701 11.5576 15 10.7813 15H7.96876C7.19239 15 6.56251 14.3701 6.56251 13.5937V8.90624C6.56251 8.12988 7.19239 7.49999 7.96876 7.49999H10.7813C11.5576 7.49999 12.1875 8.12988 12.1875 8.90624V13.5937ZM7.50001 13.5937C7.50001 13.8516 7.71095 14.0625 7.96876 14.0625H10.7813C11.0391 14.0625 11.25 13.8516 11.25 13.5937V8.90624C11.25 8.64843 11.0391 8.43749 10.7813 8.43749H7.96876C7.71095 8.43749 7.50001 8.64843 7.50001 8.90624V13.5937ZM17.3438 11.25C18.1201 11.25 18.75 11.8799 18.75 12.6562V13.5937C18.75 14.3701 18.1201 15 17.3438 15H14.5313C13.7549 15 13.125 14.3701 13.125 13.5937V12.6562C13.125 11.8799 13.7549 11.25 14.5313 11.25H17.3438ZM14.0625 13.5937C14.0625 13.8516 14.2735 14.0625 14.5313 14.0625H17.3438C17.6016 14.0625 17.8125 13.8516 17.8125 13.5937V12.6562C17.8125 12.3984 17.6016 12.1875 17.3438 12.1875H14.5313C14.2735 12.1875 14.0625 12.3984 14.0625 12.6562V13.5937Z" fill="#000"/>
</svg>
