<svg width="19" height="15" viewBox="0 0 19 15" fill="none" xmlns="http://www.w3.org/2000/svg">
<path d="M10.3645 1.58596L9.67311 0.18567C9.55886 -0.0574762 9.20146 -0.0662646 9.0755 0.18567L8.38414 1.58596L6.85203 1.80567C6.57959 1.84668 6.46241 2.18357 6.66454 2.3857L7.77774 3.46961L7.51409 4.99586C7.47308 5.2683 7.75431 5.47922 8.00624 5.35325L9.38016 4.62675L10.7453 5.34154C10.9972 5.4675 11.2814 5.25658 11.2374 4.98414L10.9738 3.45789L12.087 2.3857C12.2862 2.1865 12.1719 1.84961 11.8995 1.80567L10.3674 1.58596H10.3645ZM7.49944 7.50056C6.98093 7.50056 6.56201 7.91947 6.56201 8.43799V14.0626C6.56201 14.5811 6.98093 15 7.49944 15H11.2492C11.7677 15 12.1866 14.5811 12.1866 14.0626V8.43799C12.1866 7.91947 11.7677 7.50056 11.2492 7.50056H7.49944ZM0.93743 9.37542C0.418914 9.37542 0 9.79433 0 10.3128V14.0626C0 14.5811 0.418914 15 0.93743 15H4.68715C5.20567 15 5.62458 14.5811 5.62458 14.0626V10.3128C5.62458 9.79433 5.20567 9.37542 4.68715 9.37542H0.93743ZM13.124 12.1877V14.0626C13.124 14.5811 13.5429 15 14.0615 15H17.8112C18.3297 15 18.7486 14.5811 18.7486 14.0626V12.1877C18.7486 11.6692 18.3297 11.2503 17.8112 11.2503H14.0615C13.5429 11.2503 13.124 11.6692 13.124 12.1877Z" fill="#000"/>
</svg>
