<svg width="15" height="15" viewBox="0 0 15 15" fill="none" xmlns="http://www.w3.org/2000/svg">
<path d="M7.09736 1.9566e-09C7.23583 -8.8366e-06 7.36841 0.0299274 7.49215 0.0860522L13.0398 2.43938C13.688 2.71426 14.1741 3.35299 14.1682 4.09837C14.1535 7.04751 12.9514 12.3948 7.87516 14.8254C7.38314 15.0582 6.81158 15.0582 6.31957 14.8254C1.24182 12.3948 0.040952 7.04751 0 4.09837C0.0226856 3.35299 0.507333 2.71426 1.1549 2.43938L6.70552 0.0860522C6.82631 0.0299274 6.96184 -8.8366e-06 7.09736 1.9566e-09ZM7.09736 13.1049C11.1366 11.1368 12.2561 6.7794 12.2826 4.16614L7.09736 1.9674V13.1049Z" fill="#FBFFFF"/>
</svg>
