<svg width="15" height="15" viewBox="0 0 15 15" fill="none" xmlns="http://www.w3.org/2000/svg">
<path d="M15.0003 2.32141V5.37065C15.0003 6.41984 14.3036 7.34048 13.2984 7.62662L12.99 7.71466L12.4174 8.70808C12.289 8.9318 11.9995 9.00949 11.7756 8.87754L10.8291 8.33079L8.34127 9.04206C7.95623 9.15212 7.63399 9.35785 7.32525 9.64017L2.17178 14.7936C1.89664 15.0688 1.45275 15.0688 1.17776 14.7936L0.206352 13.8222C-0.0687839 13.5472 -0.0687839 13.1032 0.206352 12.8282L2.81801 10.2166V8.89532C2.81801 8.63486 3.02715 8.42576 3.26117 8.42576H4.55599L5.33371 7.64833C5.95353 7.02822 6.72274 6.57773 7.56649 6.33561L12.1829 5.01466V2.79098H10.7047L10.3672 3.4695C10.2498 3.70061 9.96744 3.79614 9.73618 3.6786L8.0566 2.86493C7.82554 2.75121 7.73025 2.46874 7.84756 2.23777L8.31741 1.29805C8.71361 0.502141 9.52742 0 10.4152 0H12.653C13.9467 0 15.0003 1.053 15.0003 2.32141Z" fill="#FFFEFF"/>
</svg>
