<svg width="12" height="13" viewBox="0 0 12 13" fill="none" xmlns="http://www.w3.org/2000/svg">
<path d="M6.65284 0.921828C6.5324 0.664044 6.27788 0.5 5.99837 0.5C5.71885 0.5 5.46661 0.664044 5.34389 0.921828L3.88269 4.02226L0.619398 4.51908C0.3467 4.56126 0.119452 4.75812 0.03537 5.02762C-0.0487119 5.29712 0.0194625 5.59474 0.214896 5.79394L2.58282 8.21008L2.02379 11.6245C1.97834 11.9058 2.09197 12.1917 2.31694 12.358C2.54192 12.5244 2.83962 12.5455 3.08504 12.4119L6.00064 10.8067L8.91624 12.4119C9.16167 12.5455 9.45936 12.5268 9.68434 12.358C9.90931 12.1893 10.0229 11.9058 9.97749 11.6245L9.41618 8.21008L11.7841 5.79394C11.9795 5.59474 12.05 5.29712 11.9636 5.02762C11.8773 4.75812 11.6523 4.56126 11.3796 4.51908L8.11405 4.02226L6.65284 0.921828Z" fill="#000"/>
</svg>
