<svg width="21" height="21" viewBox="0 0 21 21" fill="none" xmlns="http://www.w3.org/2000/svg">
<path d="M11.6425 0.738199C11.4317 0.287077 10.9863 0 10.4971 0C10.008 0 9.56656 0.287077 9.35181 0.738199L6.7947 6.16396L1.08395 7.03339C0.606726 7.10721 0.209041 7.4517 0.0618974 7.92333C-0.0852459 8.39496 0.0340594 8.9158 0.376068 9.26439L4.51994 13.4926L3.54164 19.4679C3.4621 19.9601 3.66094 20.4604 4.05465 20.7516C4.44836 21.0428 4.96933 21.0797 5.39883 20.8459L10.5011 18.0367L15.6034 20.8459C16.0329 21.0797 16.5539 21.0469 16.9476 20.7516C17.3413 20.4563 17.5401 19.9601 17.4606 19.4679L16.4783 13.4926L20.6222 9.26439C20.9642 8.9158 21.0875 8.39496 20.9364 7.92333C20.7852 7.4517 20.3915 7.10721 19.9143 7.03339L14.1996 6.16396L11.6425 0.738199Z" fill="#000"/>
</svg>
