<svg width="21" height="20" viewBox="0 0 21 20" fill="none" xmlns="http://www.w3.org/2000/svg">
<path d="M12.5859 15.2098L15.6755 12.0846L4.14824 0.523009L1.0969 0.00534055C0.750248 -0.0434839 0.457496 0.249502 0.506321 0.596312L1.02386 3.64804L12.5859 15.2098ZM20.3119 18.0494L17.9976 15.7348L19.2327 13.4299C19.3645 13.1857 19.3205 12.8877 19.1252 12.6924L18.437 12.0069C18.1929 11.7628 17.7976 11.7628 17.5535 12.0069L12.5039 17.0612C12.2597 17.3054 12.2597 17.7026 12.5039 17.9416L13.1905 18.6302C13.3507 18.8256 13.6835 18.8695 13.9276 18.7377L16.1969 17.5022L18.5112 19.8169C18.7553 20.061 19.1557 20.061 19.3998 19.8169L20.2787 18.938C20.5579 18.6939 20.5579 18.2916 20.3119 18.0494ZM19.976 3.64817L20.4935 0.596441C20.5423 0.249748 20.2494 -0.043355 19.9029 0.00546945L16.8516 0.523009L11.4184 5.99135L14.508 9.11651L19.976 3.64817ZM6.49259 10.8859L4.40681 12.9678L3.44204 12.003C3.19792 11.7588 2.80068 11.7588 2.56164 12.003L1.87341 12.6897C1.71326 12.885 1.63417 13.183 1.76599 13.4271L3.00106 15.732L0.687089 18.0494C0.442966 18.2936 0.442966 18.6939 0.687089 18.938L1.56593 19.8169C1.81005 20.061 2.21041 20.061 2.45453 19.8169L4.76881 17.5022L7.03818 18.7377C7.2823 18.8695 7.57993 18.8255 7.77523 18.6302L8.45877 17.9416C8.7029 17.6975 8.7029 17.3003 8.45877 17.0612L7.49674 16.0961L9.58135 14.0111L6.49259 10.8859Z" fill="#000"/>
</svg>
