<svg width="16" height="15" viewBox="0 0 16 15" fill="none" xmlns="http://www.w3.org/2000/svg">
<path d="M3.22646 6.66869C3.04335 6.48564 2.74685 6.48564 2.56373 6.66869L2.01439 7.21804C1.8533 7.37546 1.8313 7.62441 1.95582 7.81133L3.51948 10.1549L1.95201 11.7224L1.09503 11.294C0.937551 11.2135 0.750773 11.2465 0.626255 11.3709L0.120856 11.8763C-0.0402854 12.0338 -0.0402854 12.2938 0.120856 12.4512L2.54882 14.8791C2.7063 15.0403 2.96632 15.0403 3.12366 14.8791L3.62905 14.3737C3.75357 14.2492 3.78653 14.0626 3.70596 13.905L3.27762 13.048L4.84509 11.4805L7.18867 13.0454C7.37545 13.1699 7.62434 13.1479 7.78196 12.9868L8.33131 12.4362C8.51442 12.2531 8.51442 11.9566 8.33131 11.7735L3.22646 6.66869ZM14.4654 0.0047493L11.7189 0.470009L5.03711 7.15212L7.84947 9.96447L14.5324 3.2815L14.9974 0.534767C15.0396 0.228335 14.773 -0.0391896 14.4654 0.0047493Z" fill="#FFFEFF"/>
</svg>
