<svg width="13" height="12" viewBox="0 0 13 12" fill="none" xmlns="http://www.w3.org/2000/svg">
<path d="M7.75143 9.12588L9.6052 7.25079L2.68884 0.313805L0.858043 0.00320433C0.650051 -0.0260904 0.4744 0.149701 0.503695 0.357787L0.814218 2.18882L7.75143 9.12588ZM12.387 10.8297L10.9985 9.44086L11.7395 8.05791C11.8186 7.91142 11.7922 7.73263 11.675 7.61545L11.2621 7.20415C11.1156 7.05765 10.8785 7.05765 10.732 7.20415L7.70222 10.2367C7.55575 10.3832 7.55575 10.6216 7.70222 10.765L8.11422 11.1781C8.21031 11.2954 8.40998 11.3217 8.55645 11.2426L9.91807 10.5013L11.3066 11.8901C11.4531 12.0366 11.6933 12.0366 11.8398 11.8901L12.3671 11.3628C12.5347 11.2163 12.5347 10.975 12.387 10.8297ZM12.1855 2.1889L12.496 0.357865C12.5253 0.149849 12.3495 -0.026013 12.1417 0.00328167L10.3109 0.313805L7.05094 3.59481L8.90471 5.4699L12.1855 2.1889ZM4.09546 6.53154L2.84399 7.78067L2.26513 7.20181C2.11865 7.05531 1.88031 7.05531 1.73688 7.20181L1.32395 7.61381C1.22786 7.73101 1.1804 7.9098 1.2595 8.05627L2.00054 9.43922L0.612155 10.8297C0.465682 10.9762 0.465682 11.2163 0.612155 11.3628L1.13946 11.8901C1.28593 12.0366 1.52615 12.0366 1.67262 11.8901L3.06119 10.5013L4.42281 11.2426C4.56928 11.3217 4.74786 11.2953 4.86504 11.1781L5.27517 10.765C5.42164 10.6185 5.42164 10.3802 5.27517 10.2367L4.69794 9.65764L5.94871 8.40664L4.09546 6.53154Z" fill="#000"/>
</svg>
