<svg width="13" height="13" viewBox="0 0 13 13" fill="none" xmlns="http://www.w3.org/2000/svg">
<path d="M11.8241 12.3241C11.5897 12.5586 11.2103 12.5586 10.9755 12.3241L6.00056 7.34804L1.02446 12.3241C0.78998 12.5586 0.410603 12.5586 0.17586 12.3241C-0.0586201 12.0897 -0.0586201 11.7103 0.17586 11.4755L5.15309 6.50056L0.17661 1.52446C-0.0578702 1.28998 -0.0578702 0.910603 0.17661 0.67586C0.411091 0.44138 0.790467 0.44138 1.02521 0.67586L6.00056 5.65309L10.9767 0.676985C11.2111 0.442505 11.5905 0.442505 11.8253 0.676985C12.0597 0.911466 12.0597 1.29084 11.8253 1.52559L6.84804 6.50056L11.8241 11.4767C12.0604 11.7092 12.0604 12.0916 11.8241 12.3241Z" fill="#000"/>
</svg>
